Toto Live In Amsterdam Mkv 720p Dts

Track Listing:
1. Girl Goodbye - Goodbye Elenome - Childs Anthem - Ill
Supply The love (Medley)
2. Gift With A Golden Gub
3. While My Guitar Gentle Weeps
4. Bodhisattva
5. Africa
6. David Paich - Solo
7. Dune/Dont Stop Me Now
8. Waiting For Your Love - Georgy Porgy - Lion - Hydra -
English Eyes - Till The End (Medley)
9. I Wont Hold You Back
10. Rosanna
11. Afraid Of Love
12. Hold The Line
13. Next To You
14. Home Of The Brave
15. White Sister

General 
Unique ID : 204538381136341100823594253970272752059 (0x99E0A8C7EE3345C69C4FB5F8727511BB) 
Toto Live In Amsterdam Mkv 720p Dts
Format : Matroska 
Format version : Version 2 
File size : 2.70 GiB 
Duration : 1h 43mn 
Overall bit rate mode : Variable 
Overall bit rate : 3 718 Kbps 
Movie name : video 
Encoded date : UTC 2013-01-06 00:33:04 
Writing application : mkvmerge v5.7.0 ('The Whirlwind') built on Jul 8 2012 20:08:51 
Writing library : libebml v1.2.3 + libmatroska v1.3.0 

Video 
ID : 1 
Format : AVC 
Format/Info : Advanced Video Codec 
Format profile : High@L4.0 
Format settings, CABAC : Yes 
Format settings, ReFrames : 3 frames 
Codec ID : V_MPEG4/ISO/AVC 
Duration : 1h 43mn 
Bit rate mode : Variable 
Bit rate : 2 876 Kbps 
Maximum bit rate : 25.0 Mbps 
Width : 1 280 pixels 
Height : 720 pixels 
Display aspect ratio : 16:9 
Frame rate mode : Constant 
Frame rate : 29.970 fps 
Color space : YUV 
Chroma subsampling : 4:2:0 
Bit depth : 8 bits 
Scan type : Progressive 
Bits/(Pixel*Frame) : 0.104 
Stream size : 2.09 GiB (77%) 
Writing library : x264 core 125 r2208 d9d2288 
Encoding settings : cabac=1 / ref=3 / deblock=1:0:0 / analyse=0x3:0x113 / me=hex / subme=7 / psy=1 / psy_rd=1.00:0.00 / mixed_ref=1 / me_range=16 / chroma_me=1 / trellis=1 / 8x8dct=1 / cqm=0 / deadzone=21,11 / fast_pskip=1 / chroma_qp_offset=-2 / threads=12 / lookahead_threads=2 / sliced_threads=0 / nr=0 / decimate=1 / interlaced=0 / bluray_compat=0 / constrained_intra=0 / bframes=3 / b_pyramid=0 / b_adapt=1 / b_bias=0 / direct=1 / weightb=1 / open_gop=0 / weightp=2 / keyint=300 / keyint_min=30 / scenecut=40 / intra_refresh=0 / rc_lookahead=40 / rc=crf / mbtree=1 / crf=24.0 / qcomp=0.60 / qpmin=0 / qpmax=69 / qpstep=4 / vbv_maxrate=25000 / vbv_bufsize=25000 / crf_max=0.0 / nal_hrd=vbr / ip_ratio=1.40 / aq=1:1.00 
Default : Yes 
Forced : No 

Audio 
ID : 2 
Format : DTS 
Format/Info : Digital Theater Systems 
Mode : 16 
Format settings, Endianness : Big 
Codec ID : A_DTS 
Duration : 1h 43mn 
Bit rate mode : Constant 
Bit rate : 768 Kbps 
Channel(s) : 6 channels 
Channel positions : Front: L C R, Side: L R, LFE 
Sampling rate : 48.0 KHz 
Bit depth : 24 bits 
Compression mode : Lossy 
Stream size : 570 MiB (21%) 
Language : English 
Default : Yes 
Forced : No 